<?xml version="1.0" encoding="UTF-8" standalone="no"?>
<svg
   height="800"
   width="1200"
   fill="#0071c5"
   viewBox="-44.7 -49.12825 387.4 294.7695"
   version="1.1"
   id="svg2"
   sodipodi:docname="Intel.svg"
   xmlns:inkscape="http://www.inkscape.org/namespaces/inkscape"
   xmlns:sodipodi="http://sodipodi.sourceforge.net/DTD/sodipodi-0.dtd"
   xmlns="http://www.w3.org/2000/svg"
   xmlns:svg="http://www.w3.org/2000/svg">
  <defs
     id="defs2" />
  <sodipodi:namedview
     id="namedview2"
     pagecolor="#ffffff"
     bordercolor="#000000"
     borderopacity="0.25"
     inkscape:showpageshadow="2"
     inkscape:pageopacity="0.0"
     inkscape:pagecheckerboard="0"
     inkscape:deskcolor="#d1d1d1"
     inkscape:export-bgcolor="#ffffffff" />
  <path
     d="m 87.799,83.354 v 48.122 H 72.479 V 70.989 l 31.626,0.03 c 13.433,0 18.009,9.473 18.009,18.078 v 42.379 h -15.291 v -42.3 c 0,-3.604 -1.866,-5.822 -6.366,-5.822 z m 104.164,-0.723 c -5.236,0 -9.288,2.692 -10.98,6.346 -1.004,2.194 -1.348,3.875 -1.466,6.561 h 23.567 c -0.303,-6.561 -3.278,-12.907 -11.121,-12.907 m -12.446,23.333 c 0,7.835 4.87,13.602 13.567,13.602 6.766,0 10.129,-1.875 14.041,-5.767 l 9.461,9.034 c -6.058,5.98 -12.415,9.613 -23.615,9.613 -14.664,0 -28.697,-7.996 -28.697,-31.3 0,-19.91 12.252,-31.183 28.353,-31.183 16.32,0 25.748,13.197 25.748,30.483 v 5.518 H 179.517 M 151.343,131.4 c -12.48,0 -17.775,-8.687 -17.775,-17.267 V 54.508 h 15.295 v 16.48 h 11.53 v 12.366 h -11.53 v 29.82 c 0,3.514 1.66,5.465 5.308,5.465 h 6.222 V 131.4 h -9.05 M 58.85,62.63 H 43.426 V 47.978 H 58.85 Z m 0.039,69.482 c -11.55,-1.11 -15.48,-8.116 -15.48,-16.2 l 0.018,-44.923 h 15.462 z m 183.829,-1.293 c -11.526,-1.111 -15.437,-8.106 -15.437,-16.18 V 45.894 h 15.437 z m 53.965,-74.99 C 282.693,-12.377 150.297,-16.695 64.96,35.256 v 5.736 c 85.25,-43.812 206.157,-43.553 217.173,19.267 3.685,20.772 -8.02,42.429 -28.925,54.877 v 16.286 c 25.162,-9.205 50.967,-39.055 43.475,-75.594 M 141.559,175.16 C 82.662,180.605 21.289,172.056 12.701,126.033 8.497,103.346 18.833,79.296 32.544,64.357 V 56.369 C 7.86,78.013 -5.535,105.414 2.177,137.792 c 9.843,41.518 62.517,65.047 142.916,57.233 31.81,-3.104 73.444,-13.333 102.389,-29.22 v -22.569 c -26.264,15.64 -69.726,28.573 -105.923,31.924"
     id="path1" />
  <path
     d="m 260.562,50.458 c 0,-0.748 -0.437,-0.986 -1.436,-0.986 h -0.965 v 2.118 c 0.14,0 0.841,0.026 0.965,0.026 0.999,0 1.436,-0.334 1.436,-1.034 z m 1.504,5.253 h -1.143 a 0.272,0.272 0 0 1 -0.238,-0.152 l -1.56,-2.643 c -0.027,-0.054 -0.162,-0.118 -0.215,-0.118 h -0.7 v 2.621 c 0,0.14 -0.097,0.292 -0.281,0.292 h -1.034 c -0.13,0 -0.258,-0.152 -0.258,-0.292 v -6.631 c 0,-0.384 0.149,-0.544 0.473,-0.594 0.365,-0.048 1.357,-0.08 1.892,-0.08 1.899,0 3.048,0.56 3.048,2.344 v 0.124 c 0,1.104 -0.55,1.687 -1.402,1.972 l 1.617,2.734 c 0.01,0.056 0.048,0.131 0.048,0.196 0,0.107 -0.064,0.227 -0.247,0.227 m -2.714,-8.794 c -2.813,0 -5.088,2.322 -5.088,5.12 a 5.09,5.09 0 0 0 5.088,5.086 c 2.799,0 5.096,-2.286 5.096,-5.087 0,-2.797 -2.297,-5.12 -5.096,-5.12 m 0,11.261 a 6.133,6.133 0 0 1 -6.145,-6.14 6.138,6.138 0 0 1 6.145,-6.144 c 3.381,0 6.16,2.766 6.16,6.143 0,3.383 -2.779,6.141 -6.16,6.141"
     id="path2" />
</svg>
